Cantarell_Sketch3-Regular_20180527.ufo
<glyph name="period" format="1">
  <advance width="274"/>
  <unicode hex="002E"/>
  <outline>
    <contour>
      <point x="175" y="-10"/>
      <point x="201" y="17"/>
      <point x="201" y="54" type="curve" smooth="yes"/>
      <point x="201" y="91"/>
      <point x="175" y="118"/>
      <point x="137" y="118" type="curve" smooth="yes"/>
      <point x="99" y="118"/>
      <point x="73" y="91"/>
      <point x="73" y="54" type="curve" smooth="yes"/>
      <point x="73" y="17"/>
      <point x="99" y="-10"/>
      <point x="137" y="-10" type="curve" smooth="yes"/>
    </contour>
  </outline>
</glyph>
<glyph name="Q" format="1">
  <advance width="788"/>
  <unicode hex="0051"/>
  <note>
    Q
  </note>
  <outline>
    <contour>
      <point x="586" y="-7"/>
      <point x="720" y="138"/>
      <point x="720" y="356" type="curve" smooth="yes"/>
      <point x="720" y="564"/>
      <point x="590" y="703"/>
      <point x="396" y="703" type="curve" smooth="yes"/>
      <point x="199" y="703"/>
      <point x="68" y="559"/>
      <point x="68" y="344" type="curve" smooth="yes"/>
      <point x="68" y="133"/>
      <point x="195" y="-7"/>
      <point x="386" y="-7" type="curve" smooth="yes"/>
    </contour>
    <contour>
      <point x="250" y="65"/>
      <point x="153" y="181"/>
      <point x="153" y="356" type="curve" smooth="yes"/>
      <point x="153" y="520"/>
      <point x="246" y="630"/>
      <point x="386" y="630" type="curve" smooth="yes"/>
      <point x="535" y="630"/>
      <point x="635" y="516"/>
      <point x="635" y="344" type="curve" smooth="yes"/>
      <point x="635" y="177"/>
      <point x="539" y="65"/>
      <point x="396" y="65" type="curve" smooth="yes"/>
    </contour>
    <contour>
      <point x="739" y="19" type="line"/>
      <point x="430" y="309" type="line"/>
      <point x="385" y="259" type="line"/>
      <point x="690" y="-32" type="line"/>
    </contour>
    <contour>
      <point x="394" y="694" type="move" name="top"/>
    </contour>
    <contour>
      <point x="394" y="0" type="move" name="bottom"/>
    </contour>
  </outline>
</glyph>
<glyph name="S" format="1">
  <advance width="606"/>
  <unicode hex="0053"/>
  <note>
    S
  </note>
  <outline>
    <contour>
      <point x="445" y="-10"/>
      <point x="546" y="69"/>
      <point x="546" y="191" type="curve" smooth="yes"/>
      <point x="546" y="437"/>
      <point x="157" y="339"/>
      <point x="157" y="518" type="curve" smooth="yes"/>
      <point x="157" y="591"/>
      <point x="216" y="631"/>
      <point x="322" y="631" type="curve" smooth="yes"/>
      <point x="381" y="631"/>
      <point x="445" y="619"/>
      <point x="495" y="598" type="curve"/>
      <point x="520" y="663" type="line"/>
      <point x="461" y="689"/>
      <point x="394" y="703"/>
      <point x="328" y="703" type="curve" smooth="yes"/>
      <point x="173" y="703"/>
      <point x="72" y="626"/>
      <point x="72" y="505" type="curve" smooth="yes"/>
      <point x="72" y="267"/>
      <point x="460" y="356"/>
      <point x="460" y="179" type="curve" smooth="yes"/>
      <point x="460" y="109"/>
      <point x="400" y="64"/>
      <point x="295" y="64" type="curve" smooth="yes"/>
      <point x="232" y="64"/>
      <point x="154" y="81"/>
      <point x="86" y="109" type="curve"/>
      <point x="61" y="44" type="line"/>
      <point x="138" y="9"/>
      <point x="216" y="-10"/>
      <point x="290" y="-10" type="curve" smooth="yes"/>
    </contour>
    <contour>
      <point x="300" y="694" type="move" name="top"/>
    </contour>
    <contour>
      <point x="300" y="0" type="move" name="bottom"/>
    </contour>
  </outline>
</glyph>
<glyph name="W" format="1">
  <advance width="1030"/>
  <unicode hex="0057"/>
  <note>
    W
  </note>
  <outline>
    <contour>
      <point x="339" y="0" type="line"/>
      <point x="531" y="653" type="line"/>
      <point x="489" y="653" type="line"/>
      <point x="697" y="0" type="line"/>
      <point x="777" y="0" type="line"/>
      <point x="993" y="694" type="line"/>
      <point x="910" y="694" type="line"/>
      <point x="718" y="39" type="line"/>
      <point x="763" y="39" type="line"/>
      <point x="562" y="689" type="line"/>
      <point x="469" y="689" type="line"/>
      <point x="280" y="39" type="line"/>
      <point x="320" y="39" type="line"/>
      <point x="133" y="694" type="line"/>
      <point x="37" y="694" type="line"/>
      <point x="256" y="0" type="line"/>
    </contour>
    <contour>
      <point x="512" y="694" type="move" name="top"/>
    </contour>
    <contour>
      <point x="512" y="0" type="move" name="bottom"/>
    </contour>
  </outline>
</glyph>
<glyph name="Z" format="1">
  <advance width="662"/>
  <unicode hex="005A"/>
  <note>
    Z
  </note>
  <outline>
    <contour>
      <point x="610" y="0" type="line"/>
      <point x="610" y="72" type="line"/>
      <point x="130" y="72" type="line"/>
      <point x="142" y="47" type="line"/>
      <point x="597" y="642" type="line"/>
      <point x="597" y="694" type="line"/>
      <point x="66" y="694" type="line"/>
      <point x="66" y="622" type="line"/>
      <point x="518" y="622" type="line"/>
      <point x="506" y="647" type="line"/>
      <point x="52" y="53" type="line"/>
      <point x="52" y="0" type="line"/>
    </contour>
    <contour>
      <point x="331" y="694" type="move" name="top"/>
    </contour>
    <contour>
      <point x="331" y="0" type="move" name="bottom"/>
    </contour>
  </outline>
</glyph>
<glyph name="l" format="1">
  <advance width="272"/>
  <unicode hex="006C"/>
  <note>
    l
  </note>
  <outline>
    <contour>
      <point x="215" y="-6"/>
      <point x="246" y="0"/>
      <point x="265" y="10" type="curve"/>
      <point x="247" y="66" type="line"/>
      <point x="235" y="61"/>
      <point x="224" y="58"/>
      <point x="212" y="58" type="curve" smooth="yes"/>
      <point x="178" y="58"/>
      <point x="160" y="81"/>
      <point x="160" y="118" type="curve" smooth="yes"/>
      <point x="160" y="739" type="line"/>
      <point x="80" y="739" type="line"/>
      <point x="80" y="108" type="line" smooth="yes"/>
      <point x="80" y="39"/>
      <point x="123" y="-6"/>
      <point x="189" y="-6" type="curve" smooth="yes"/>
    </contour>
    <contour>
      <point x="160" y="0" type="move" name="bottom"/>
    </contour>
    <contour>
      <point x="272" y="353" type="move" name="periodcentered"/>
    </contour>
    <contour>
      <point x="121" y="739" type="move" name="top"/>
    </contour>
    <contour>
      <point x="243" y="482" type="move" name="topright"/>
    </contour>
    <contour>
      <point x="139" y="386" type="move" name="center"/>
    </contour>
  </outline>
</glyph>
<glyph name="bar" format="1">
  <advance width="331"/>
  <unicode hex="007C"/>
  <outline>
    <contour>
      <point x="204" y="-159" type="line"/>
      <point x="204" y="741" type="line"/>
      <point x="127" y="741" type="line"/>
      <point x="127" y="-159" type="line"/>
    </contour>
  </outline>
</glyph>
<glyph name="logicalnot" format="1">
  <advance width="687"/>
  <unicode hex="00AC"/>
  <outline>
    <contour>
      <point x="560" y="328" type="line"/>
      <point x="560" y="395" type="line"/>
      <point x="84" y="395" type="line"/>
      <point x="84" y="328" type="line"/>
    </contour>
    <contour>
      <point x="560" y="152" type="line"/>
      <point x="560" y="353" type="line"/>
      <point x="480" y="353" type="line"/>
      <point x="480" y="152" type="line"/>
    </contour>
  </outline>
</glyph>
<glyph name="ae" format="1">
  <advance width="837"/>
  <unicode hex="00E6"/>
  <outline>
    <contour>
      <point x="426" y="224" type="line"/>
      <point x="426" y="326" type="line" smooth="yes"/>
      <point x="426" y="434"/>
      <point x="364" y="492"/>
      <point x="249" y="492" type="curve" smooth="yes"/>
      <point x="185" y="492"/>
      <point x="125" y="474"/>
      <point x="61" y="436" type="curve"/>
      <point x="79" y="378" type="line"/>
      <point x="136" y="407"/>
      <point x="182" y="420"/>
      <point x="232" y="420" type="curve" smooth="yes"/>
      <point x="316" y="420"/>
      <point x="364" y="384"/>
      <point x="364" y="313" type="curve" smooth="yes"/>
      <point x="364" y="224" type="line"/>
    </contour>
    <contour>
      <point x="324" y="-10"/>
      <point x="412" y="62"/>
      <point x="428" y="169" type="curve"/>
      <point x="399" y="183" type="line"/>
      <point x="383" y="108"/>
      <point x="318" y="60"/>
      <point x="234" y="60" type="curve" smooth="yes"/>
      <point x="170" y="60"/>
      <point x="129" y="89"/>
      <point x="129" y="134" type="curve" smooth="yes"/>
      <point x="129" y="196"/>
      <point x="203" y="219"/>
      <point x="371" y="219" type="curve"/>
      <point x="371" y="279" type="line"/>
      <point x="164" y="279"/>
      <point x="49" y="225"/>
      <point x="49" y="120" type="curve" smooth="yes"/>
      <point x="49" y="42"/>
      <point x="113" y="-10"/>
      <point x="210" y="-10" type="curve" smooth="yes"/>
    </contour>
    <contour>
      <point x="663" y="-10"/>
      <point x="711" y="1"/>
      <point x="767" y="26" type="curve"/>
      <point x="749" y="84" type="line"/>
      <point x="703" y="65"/>
      <point x="662" y="55"/>
      <point x="621" y="55" type="curve" smooth="yes"/>
      <point x="510" y="55"/>
      <point x="434" y="130"/>
      <point x="434" y="255" type="curve" smooth="yes"/>
      <point x="434" y="364"/>
      <point x="491" y="424"/>
      <point x="579" y="424" type="curve" smooth="yes"/>
      <point x="661" y="424"/>
      <point x="709" y="371"/>
      <point x="709" y="279" type="curve"/>
      <point x="428" y="279" type="line"/>
      <point x="428" y="219" type="line"/>
      <point x="780" y="219" type="line"/>
      <point x="782" y="234"/>
      <point x="784" y="269"/>
      <point x="784" y="288" type="curve" smooth="yes"/>
      <point x="784" y="409"/>
      <point x="704" y="492"/>
      <point x="585" y="492" type="curve" smooth="yes"/>
      <point x="451" y="492"/>
      <point x="360" y="388"/>
      <point x="360" y="236" type="curve" smooth="yes"/>
      <point x="360" y="82"/>
      <point x="453" y="-10"/>
      <point x="609" y="-10" type="curve" smooth="yes"/>
    </contour>
    <contour>
      <point x="420" y="482" type="move" name="top"/>
    </contour>
    <contour>
      <point x="420" y="0" type="move" name="bottom"/>
    </contour>
  </outline>
</glyph>
<glyph name="oslash" format="1">
  <advance width="569"/>
  <unicode hex="00F8"/>
  <outline>
    <contour>
      <point x="420" y="-10"/>
      <point x="516" y="93"/>
      <point x="516" y="247" type="curve" smooth="yes"/>
      <point x="516" y="396"/>
      <point x="427" y="492"/>
      <point x="290" y="492" type="curve" smooth="yes"/>
      <point x="148" y="492"/>
      <point x="53" y="390"/>
      <point x="53" y="236" type="curve" smooth="yes"/>
      <point x="53" y="87"/>
      <point x="141" y="-10"/>
      <point x="278" y="-10" type="curve" smooth="yes"/>
    </contour>
    <contour>
      <point x="196" y="60"/>
      <point x="133" y="135"/>
      <point x="133" y="246" type="curve" smooth="yes"/>
      <point x="133" y="353"/>
      <point x="190" y="422"/>
      <point x="279" y="422" type="curve" smooth="yes"/>
      <point x="372" y="422"/>
      <point x="436" y="346"/>
      <point x="436" y="236" type="curve" smooth="yes"/>
      <point x="436" y="130"/>
      <point x="378" y="60"/>
      <point x="289" y="60" type="curve" smooth="yes"/>
    </contour>
    <contour>
      <point x="496" y="513" type="line"/>
      <point x="449" y="542" type="line"/>
      <point x="67" y="-29" type="line"/>
      <point x="110" y="-58" type="line"/>
    </contour>
    <contour>
      <point x="285" y="482" type="move" name="top"/>
    </contour>
  </outline>
</glyph>
<glyph name="idotless" format="1">
  <advance width="254"/>
  <unicode hex="0131"/>
  <note>
    dotlessi
  </note>
  <outline>
    <contour>
      <point x="167" y="0" type="line"/>
      <point x="167" y="482" type="line"/>
      <point x="87" y="482" type="line"/>
      <point x="87" y="0" type="line"/>
    </contour>
    <contour>
      <point x="145" y="10" type="move" name="ogonek"/>
    </contour>
    <contour>
      <point x="127" y="0" type="move" name="bottom"/>
    </contour>
    <contour>
      <point x="128" y="482" type="move" name="top"/>
    </contour>
  </outline>
</glyph>
<glyph name="kgreenlandic" format="1">
  <advance width="501"/>
  <unicode hex="0138"/>
  <outline>
    <contour>
      <point x="165" y="0" type="line"/>
      <point x="165" y="482" type="line"/>
      <point x="85" y="482" type="line"/>
      <point x="85" y="0" type="line"/>
    </contour>
    <contour>
      <point x="496" y="-3" type="line"/>
      <point x="245" y="286" type="line"/>
      <point x="239" y="237" type="line"/>
      <point x="474" y="479" type="line"/>
      <point x="379" y="479" type="line"/>
      <point x="163" y="257" type="line"/>
      <point x="390" y="-3" type="line"/>
    </contour>
  </outline>
</glyph>
<glyph name="OE" format="1">
  <advance width="1018"/>
  <unicode hex="0152"/>
  <outline>
    <contour>
      <point x="471" y="-7"/>
      <point x="543" y="1"/>
      <point x="567" y="10" type="curve"/>
      <point x="527" y="79" type="line"/>
      <point x="506" y="71"/>
      <point x="462" y="65"/>
      <point x="417" y="65" type="curve" smooth="yes"/>
      <point x="256" y="65"/>
      <point x="153" y="178"/>
      <point x="153" y="355" type="curve" smooth="yes"/>
      <point x="153" y="525"/>
      <point x="249" y="630"/>
      <point x="409" y="630" type="curve" smooth="yes"/>
      <point x="454" y="630"/>
      <point x="501" y="625"/>
      <point x="527" y="611" type="curve"/>
      <point x="567" y="686" type="line"/>
      <point x="543" y="695"/>
      <point x="470" y="703"/>
      <point x="418" y="703" type="curve" smooth="yes"/>
      <point x="201" y="703"/>
      <point x="68" y="564"/>
      <point x="68" y="343" type="curve" smooth="yes"/>
      <point x="68" y="127"/>
      <point x="195" y="-7"/>
      <point x="417" y="-7" type="curve" smooth="yes"/>
    </contour>
    <contour>
      <point x="602" y="0" type="line"/>
      <point x="602" y="694" type="line"/>
      <point x="519" y="694" type="line"/>
      <point x="519" y="0" type="line"/>
    </contour>
    <contour>
      <point x="955" y="0" type="line"/>
      <point x="955" y="72" type="line"/>
      <point x="559" y="72" type="line"/>
      <point x="559" y="0" type="line"/>
    </contour>
    <contour>
      <point x="928" y="323" type="line"/>
      <point x="928" y="395" type="line"/>
      <point x="559" y="395" type="line"/>
      <point x="559" y="323" type="line"/>
    </contour>
    <contour>
      <point x="955" y="622" type="line"/>
      <point x="955" y="694" type="line"/>
      <point x="559" y="694" type="line"/>
      <point x="559" y="622" type="line"/>
    </contour>
    <contour>
      <point x="569" y="694" type="move" name="top"/>
    </contour>
    <contour>
      <point x="569" y="0" type="move" name="bottom"/>
    </contour>
  </outline>
</glyph>
<glyph name="uni0304" format="1">
  <advance width="489"/>
  <unicode hex="0304"/>
  <outline>
    <contour>
      <point x="401" y="606" type="line"/>
      <point x="401" y="672" type="line"/>
      <point x="88" y="672" type="line"/>
      <point x="88" y="606" type="line"/>
    </contour>
    <contour>
      <point x="245" y="635" type="move" name="top"/>
    </contour>
    <contour>
      <point x="245" y="482" type="move" name="_top"/>
    </contour>
  </outline>
</glyph>
<glyph name="uni030F" format="1">
  <advance width="425"/>
  <unicode hex="030F"/>
  <outline>
    <contour>
      <point x="201" y="575" type="line"/>
      <point x="125" y="747" type="line"/>
      <point x="54" y="708" type="line"/>
      <point x="159" y="553" type="line"/>
    </contour>
    <contour>
      <point x="371" y="575" type="line"/>
      <point x="295" y="747" type="line"/>
      <point x="224" y="708" type="line"/>
      <point x="329" y="553" type="line"/>
    </contour>
    <contour>
      <point x="254" y="704" type="move" name="top"/>
    </contour>
    <contour>
      <point x="254" y="482" type="move" name="_top"/>
    </contour>
  </outline>
</glyph>
<glyph name="uni0329" format="1">
  <advance width="250"/>
  <unicode hex="0329"/>
  <outline>
    <contour>
      <point x="159" y="-225" type="line"/>
      <point x="153" y="-41" type="line"/>
      <point x="95" y="-41" type="line"/>
      <point x="89" y="-225" type="line"/>
    </contour>
    <contour>
      <point x="124" y="0" type="move" name="_bottom"/>
    </contour>
    <contour>
      <point x="124" y="-225" type="move" name="bottom"/>
    </contour>
  </outline>
</glyph>
<glyph name="strokelongcomb" format="1">
  <advance width="889"/>
  <unicode hex="0336"/>
  <outline>
    <contour>
      <point x="801" y="312" type="line"/>
      <point x="801" y="372" type="line"/>
      <point x="88" y="372" type="line"/>
      <point x="88" y="312" type="line"/>
    </contour>
    <contour>
      <point x="445" y="342" type="move" name="_center"/>
    </contour>
  </outline>
</glyph>
<glyph name="alpha" format="1">
  <advance width="592"/>
  <unicode hex="03B1"/>
  <outline>
    <contour>
      <point x="134" y="352"/>
      <point x="190" y="422"/>
      <point x="283" y="422" type="curve" smooth="yes"/>
      <point x="344" y="422"/>
      <point x="392" y="394"/>
      <point x="420" y="346" type="curve"/>
      <point x="457" y="390" type="line"/>
      <point x="422" y="455"/>
      <point x="360" y="492"/>
      <point x="280" y="492" type="curve" smooth="yes"/>
      <point x="144" y="492"/>
      <point x="54" y="390"/>
      <point x="54" y="237" type="curve" smooth="yes"/>
      <point x="54" y="89"/>
      <point x="140" y="-10"/>
      <point x="269" y="-10" type="curve" smooth="yes"/>
      <point x="350" y="-10"/>
      <point x="413" y="30"/>
      <point x="450" y="96" type="curve"/>
      <point x="421" y="132" type="line"/>
      <point x="394" y="87"/>
      <point x="349" y="60"/>
      <point x="292" y="60" type="curve" smooth="yes"/>
      <point x="196" y="60"/>
      <point x="134" y="135"/>
      <point x="134" y="246" type="curve" smooth="yes"/>
    </contour>
    <contour>
      <point x="409" y="104" type="line"/>
      <point x="409" y="34"/>
      <point x="450" y="-10"/>
      <point x="513" y="-10" type="curve" smooth="yes"/>
      <point x="540" y="-10"/>
      <point x="566" y="-2"/>
      <point x="585" y="7" type="curve"/>
      <point x="571" y="63" type="line"/>
      <point x="562" y="59"/>
      <point x="550" y="55"/>
      <point x="537" y="55" type="curve" smooth="yes"/>
      <point x="506" y="55"/>
      <point x="489" y="76"/>
      <point x="489" y="119" type="curve"/>
      <point x="489" y="482" type="line"/>
      <point x="433" y="482" type="line"/>
      <point x="409" y="426" type="line"/>
    </contour>
  </outline>
</glyph>
<glyph name="lambda" format="1">
  <advance width="542"/>
  <unicode hex="03BB"/>
  <outline>
    <contour>
      <point x="451" y="79"/>
      <point x="460" y="55"/>
      <point x="491" y="55" type="curve" smooth="yes"/>
      <point x="505" y="55"/>
      <point x="515" y="58"/>
      <point x="524" y="61" type="curve"/>
      <point x="538" y="5" type="line"/>
      <point x="519" y="-4"/>
      <point x="499" y="-10"/>
      <point x="476" y="-10" type="curve" smooth="yes"/>
      <point x="416" y="-10"/>
      <point x="391" y="25"/>
      <point x="372" y="77" type="curve" smooth="yes"/>
      <point x="228" y="466" type="line"/>
      <point x="281" y="466" type="line"/>
      <point x="110" y="0" type="line"/>
      <point x="27" y="0" type="line"/>
      <point x="220" y="482" type="line"/>
      <point x="165" y="615" type="line" smooth="yes"/>
      <point x="142" y="671"/>
      <point x="129" y="685"/>
      <point x="97" y="685" type="curve" smooth="yes"/>
      <point x="83" y="685"/>
      <point x="68" y="680"/>
      <point x="51" y="673" type="curve"/>
      <point x="33" y="729" type="line"/>
      <point x="57" y="741"/>
      <point x="86" y="749"/>
      <point x="110" y="749" type="curve" smooth="yes"/>
      <point x="173" y="749"/>
      <point x="205" y="722"/>
      <point x="236" y="641" type="curve" smooth="yes"/>
      <point x="436" y="118" type="line" smooth="yes"/>
    </contour>
  </outline>
</glyph>
<glyph name="mu" format="1">
  <advance width="591"/>
  <unicode hex="03BC"/>
  <outline>
    <contour>
      <point x="160" y="41" type="line"/>
      <point x="165" y="41" type="line"/>
      <point x="165" y="482" type="line"/>
      <point x="85" y="482" type="line"/>
      <point x="85" y="-217" type="line" smooth="yes"/>
      <point x="165" y="-217" type="line"/>
    </contour>
    <contour>
      <point x="485" y="482" type="line"/>
      <point x="405" y="482" type="line"/>
      <point x="405" y="104" type="line" smooth="yes"/>
      <point x="405" y="34"/>
      <point x="446" y="-10"/>
      <point x="509" y="-10" type="curve" smooth="yes"/>
      <point x="536" y="-10"/>
      <point x="562" y="-2"/>
      <point x="581" y="7" type="curve"/>
      <point x="567" y="63" type="line"/>
      <point x="558" y="59"/>
      <point x="546" y="55"/>
      <point x="533" y="55" type="curve" smooth="yes"/>
      <point x="502" y="55"/>
      <point x="485" y="76"/>
      <point x="485" y="119" type="curve" smooth="yes"/>
    </contour>
    <contour>
      <point x="165" y="482" type="move"/>
      <point x="85" y="482" type="line"/>
    </contour>
    <contour>
      <point x="114" y="149" type="line"/>
      <point x="132" y="28"/>
      <point x="186" y="-10"/>
      <point x="270" y="-10" type="curve" smooth="yes"/>
      <point x="329" y="-10"/>
      <point x="399" y="23"/>
      <point x="445" y="73" type="curve"/>
      <point x="426" y="124" type="line"/>
      <point x="388" y="83"/>
      <point x="335" y="60"/>
      <point x="283" y="60" type="curve" smooth="yes"/>
      <point x="211" y="60"/>
      <point x="165" y="101"/>
      <point x="165" y="179" type="curve"/>
    </contour>
    <contour>
      <point x="463" y="10" type="move" name="ogonek"/>
    </contour>
    <contour>
      <point x="284" y="0" type="move" name="bottom"/>
    </contour>
    <contour>
      <point x="284" y="482" type="move" name="top"/>
    </contour>
  </outline>
</glyph>
<glyph name="nu" format="1">
  <advance width="507"/>
  <unicode hex="03BD"/>
  <outline>
    <contour>
      <point x="336" y="98" type="line" smooth="yes"/>
      <point x="395" y="218"/>
      <point x="443" y="323"/>
      <point x="480" y="482" type="curve"/>
      <point x="398" y="482" type="line"/>
      <point x="368" y="340"/>
      <point x="324" y="233"/>
      <point x="273" y="116" type="curve" smooth="yes"/>
      <point x="229" y="16" type="line"/>
      <point x="273" y="16" type="line"/>
      <point x="115" y="482" type="line"/>
      <point x="26" y="482" type="line"/>
      <point x="210" y="0" type="line"/>
      <point x="288" y="0" type="line"/>
    </contour>
    <contour>
      <point x="254" y="482" type="move" name="top"/>
    </contour>
    <contour>
      <point x="254" y="0" type="move" name="bottom"/>
    </contour>
  </outline>
</glyph>
<glyph name="upsilon" format="1">
  <advance width="556"/>
  <unicode hex="03C5"/>
  <outline>
    <contour>
      <point x="401" y="-10"/>
      <point x="486" y="76"/>
      <point x="486" y="214" type="curve" smooth="yes"/>
      <point x="486" y="288"/>
      <point x="482" y="348"/>
      <point x="462" y="482" type="curve"/>
      <point x="380" y="482" type="line"/>
      <point x="401" y="351"/>
      <point x="406" y="277"/>
      <point x="406" y="219" type="curve" smooth="yes"/>
      <point x="406" y="118"/>
      <point x="353" y="60"/>
      <point x="277" y="60" type="curve" smooth="yes"/>
      <point x="199" y="60"/>
      <point x="156" y="103"/>
      <point x="156" y="184" type="curve" smooth="yes"/>
      <point x="156" y="482" type="line"/>
      <point x="76" y="482" type="line"/>
      <point x="76" y="167" type="line" smooth="yes"/>
      <point x="76" y="58"/>
      <point x="146" y="-10"/>
      <point x="272" y="-10" type="curve" smooth="yes"/>
    </contour>
    <contour>
      <point x="276" y="482" type="move" name="top"/>
    </contour>
  </outline>
</glyph>
<glyph name="uni0418" format="1">
  <advance width="768"/>
  <unicode hex="0418"/>
  <outline>
    <contour>
      <point x="195" y="0" type="line"/>
      <point x="599" y="605" type="line"/>
      <point x="581" y="605" type="line"/>
      <point x="581" y="0" type="line"/>
      <point x="662" y="0" type="line"/>
      <point x="662" y="694" type="line"/>
      <point x="570" y="694" type="line"/>
      <point x="168" y="87" type="line"/>
      <point x="187" y="87" type="line"/>
      <point x="187" y="694" type="line"/>
      <point x="106" y="694" type="line"/>
      <point x="106" y="0" type="line"/>
    </contour>
    <contour>
      <point x="384" y="694" type="move" name="top"/>
    </contour>
    <contour>
      <point x="748" y="0" type="move" name="bottomright"/>
    </contour>
  </outline>
</glyph>
<glyph name="uni041E" format="1">
  <advance width="788"/>
  <unicode hex="041E"/>
  <outline>
    <component base="O"/>
    <contour>
      <point x="394" y="694" type="move" name="top"/>
    </contour>
  </outline>
</glyph>
<glyph name="uni0421" format="1">
  <advance width="669"/>
  <unicode hex="0421"/>
  <outline>
    <component base="C"/>
    <contour>
      <point x="380" y="0" type="move" name="bottomright"/>
    </contour>
  </outline>
</glyph>
<glyph name="uni0430" format="1">
  <advance width="515"/>
  <unicode hex="0430"/>
  <outline>
    <component base="a"/>
    <contour>
      <point x="258" y="482" type="move" name="top"/>
    </contour>
  </outline>
</glyph>
<glyph name="uni0432" format="1">
  <advance width="82"/>
  <unicode hex="0432"/>
  <outline>
    <contour>
      <point x="279" y="0" type="line" smooth="yes"/>
      <point x="402" y="0"/>
      <point x="478" y="57"/>
      <point x="478" y="148" type="curve" smooth="yes"/>
      <point x="478" y="231"/>
      <point x="412" y="283"/>
      <point x="306" y="283" type="curve" smooth="yes"/>
      <point x="136" y="283" type="line"/>
      <point x="136" y="220" type="line"/>
      <point x="294" y="220" type="line" smooth="yes"/>
      <point x="355" y="220"/>
      <point x="393" y="187"/>
      <point x="393" y="136" type="curve" smooth="yes"/>
      <point x="393" y="71"/>
      <point x="326" y="67"/>
      <point x="287" y="67" type="curve" smooth="yes"/>
      <point x="165" y="67" type="line"/>
      <point x="165" y="415" type="line"/>
      <point x="266" y="415" type="line" smooth="yes"/>
      <point x="335" y="415"/>
      <point x="372" y="390"/>
      <point x="372" y="345" type="curve" smooth="yes"/>
      <point x="372" y="310"/>
      <point x="344" y="286"/>
      <point x="284" y="267" type="curve"/>
      <point x="381" y="260" type="line"/>
      <point x="425" y="276"/>
      <point x="455" y="319"/>
      <point x="455" y="366" type="curve" smooth="yes"/>
      <point x="455" y="440"/>
      <point x="389" y="482"/>
      <point x="274" y="482" type="curve" smooth="yes"/>
      <point x="85" y="482" type="line"/>
      <point x="85" y="0" type="line"/>
    </contour>
  </outline>
</glyph>
<glyph name="uni0433" format="1">
  <advance width="80"/>
  <unicode hex="0433"/>
  <outline>
    <contour>
      <point x="164" y="0" type="line"/>
      <point x="164" y="414" type="line"/>
      <point x="422" y="414" type="line"/>
      <point x="422" y="482" type="line"/>
      <point x="85" y="482" type="line"/>
      <point x="85" y="0" type="line"/>
    </contour>
    <contour>
      <point x="225" y="482" type="move" name="top"/>
    </contour>
    <contour>
      <point x="167" y="0" type="move" name="bottomright"/>
    </contour>
  </outline>
</glyph>
<glyph name="uni043C" format="1">
  <advance width="75"/>
  <unicode hex="043C"/>
  <outline>
    <contour>
      <point x="159" y="0" type="line"/>
      <point x="159" y="369" type="line"/>
      <point x="150" y="361" type="line"/>
      <point x="306" y="74" type="line"/>
      <point x="358" y="74" type="line"/>
      <point x="510" y="361" type="line"/>
      <point x="505" y="367" type="line"/>
      <point x="505" y="0" type="line"/>
      <point x="580" y="0" type="line"/>
      <point x="580" y="482" type="line"/>
      <point x="502" y="482" type="line"/>
      <point x="315" y="122" type="line"/>
      <point x="354" y="122" type="line"/>
      <point x="163" y="482" type="line"/>
      <point x="85" y="482" type="line"/>
      <point x="85" y="0" type="line"/>
    </contour>
  </outline>
</glyph>
<glyph name="uni044F" format="1">
  <advance width="76"/>
  <unicode hex="044F"/>
  <outline>
    <contour>
      <point x="384" y="173" type="line"/>
      <point x="384" y="238" type="line"/>
      <point x="242" y="238" type="line" smooth="yes"/>
      <point x="176" y="238"/>
      <point x="130" y="275"/>
      <point x="130" y="330" type="curve" smooth="yes"/>
      <point x="130" y="382"/>
      <point x="170" y="412"/>
      <point x="231" y="412" type="curve" smooth="yes"/>
      <point x="384" y="412" type="line"/>
      <point x="384" y="482" type="line"/>
      <point x="242" y="482" type="line" smooth="yes"/>
      <point x="127" y="482"/>
      <point x="50" y="418"/>
      <point x="50" y="322" type="curve" smooth="yes"/>
      <point x="50" y="230"/>
      <point x="121" y="173"/>
      <point x="231" y="173" type="curve" smooth="yes"/>
    </contour>
    <contour>
      <point x="134" y="0" type="line"/>
      <point x="274" y="204" type="line"/>
      <point x="186" y="204" type="line"/>
      <point x="38" y="0" type="line"/>
    </contour>
    <contour>
      <point x="437" y="0" type="line"/>
      <point x="437" y="482" type="line"/>
      <point x="357" y="482" type="line"/>
      <point x="357" y="0" type="line"/>
    </contour>
    <contour>
      <point x="260" y="482" type="move" name="top"/>
    </contour>
  </outline>
</glyph>
<glyph name="uni0454" format="1">
  <advance width="499"/>
  <unicode hex="0454"/>
  <outline>
    <contour>
      <point x="351" y="-10"/>
      <point x="415" y="5"/>
      <point x="456" y="28" type="curve"/>
      <point x="438" y="86" type="line"/>
      <point x="397" y="68"/>
      <point x="349" y="56"/>
      <point x="307" y="56" type="curve" smooth="yes"/>
      <point x="199" y="56"/>
      <point x="135" y="126"/>
      <point x="135" y="243" type="curve" smooth="yes"/>
      <point x="135" y="359"/>
      <point x="198" y="422"/>
      <point x="306" y="422" type="curve" smooth="yes"/>
      <point x="348" y="422"/>
      <point x="397" y="412"/>
      <point x="437" y="395" type="curve"/>
      <point x="456" y="460" type="line"/>
      <point x="410" y="481"/>
      <point x="356" y="492"/>
      <point x="308" y="492" type="curve" smooth="yes"/>
      <point x="156" y="492"/>
      <point x="53" y="386"/>
      <point x="53" y="227" type="curve" smooth="yes"/>
      <point x="53" y="78"/>
      <point x="142" y="-10"/>
      <point x="288" y="-10" type="curve" smooth="yes"/>
    </contour>
    <contour>
      <point x="402" y="222" type="line"/>
      <point x="402" y="287" type="line"/>
      <point x="96" y="287" type="line"/>
      <point x="96" y="222" type="line"/>
    </contour>
    <contour>
      <point x="281" y="482" type="move" name="top"/>
    </contour>
    <contour>
      <point x="259" y="0" type="move" name="bottom"/>
    </contour>
  </outline>
</glyph>
<glyph name="uni0495" format="1">
  <advance width="80"/>
  <unicode hex="0495"/>
  <outline>
    <contour>
      <point x="167" y="0" type="line"/>
      <point x="167" y="415" type="line"/>
      <point x="416" y="415" type="line"/>
      <point x="416" y="482" type="line"/>
      <point x="85" y="482" type="line"/>
      <point x="85" y="0" type="line"/>
    </contour>
    <contour>
      <point x="135" y="155" type="line"/>
      <point x="168" y="196"/>
      <point x="229" y="224"/>
      <point x="285" y="224" type="curve" smooth="yes"/>
      <point x="379" y="224"/>
      <point x="422" y="162"/>
      <point x="422" y="27" type="curve" smooth="yes"/>
      <point x="422" y="-90"/>
      <point x="392" y="-154"/>
      <point x="325" y="-180" type="curve"/>
      <point x="346" y="-226" type="line"/>
      <point x="450" y="-190"/>
      <point x="503" y="-101"/>
      <point x="503" y="40" type="curve" smooth="yes"/>
      <point x="503" y="200"/>
      <point x="438" y="294"/>
      <point x="310" y="294" type="curve" smooth="yes"/>
      <point x="239" y="294"/>
      <point x="162" y="258"/>
      <point x="119" y="205" type="curve"/>
    </contour>
  </outline>
</glyph>
<glyph name="uni04A5" format="1">
  <advance width="698"/>
  <unicode hex="04A5"/>
  <outline>
    <contour>
      <point x="493" y="0" type="line"/>
      <point x="493" y="482" type="line"/>
      <point x="413" y="482" type="line"/>
      <point x="413" y="0" type="line"/>
    </contour>
    <contour>
      <point x="165" y="0" type="line"/>
      <point x="165" y="482" type="line"/>
      <point x="85" y="482" type="line"/>
      <point x="85" y="0" type="line"/>
    </contour>
    <contour>
      <point x="440" y="214" type="line"/>
      <point x="440" y="281" type="line"/>
      <point x="138" y="281" type="line"/>
      <point x="138" y="214" type="line"/>
    </contour>
    <contour>
      <point x="680" y="415" type="line"/>
      <point x="680" y="482" type="line"/>
      <point x="478" y="482" type="line"/>
      <point x="478" y="415" type="line"/>
    </contour>
  </outline>
</glyph>
<glyph name="uni04AF" format="1">
  <advance width="508"/>
  <unicode hex="04AF"/>
  <outline>
    <contour>
      <point x="294" y="-217" type="line"/>
      <point x="294" y="0" type="line"/>
      <point x="216" y="0" type="line"/>
      <point x="216" y="-217" type="line"/>
    </contour>
    <component base="v"/>
    <contour>
      <point x="253" y="-24" type="move" name="center"/>
    </contour>
  </outline>
</glyph>
<glyph name="figuredash" format="1">
  <advance width="770"/>
  <unicode hex="2012"/>
  <outline>
    <contour>
      <point x="685" y="220" type="line"/>
      <point x="685" y="287" type="line"/>
      <point x="85" y="287" type="line"/>
      <point x="85" y="220" type="line"/>
    </contour>
  </outline>
</glyph>
<glyph name="arrowup" format="1">
  <advance width="656"/>
  <unicode hex="2191"/>
  <note>
    arrowup
  </note>
  <outline>
    <contour>
      <point x="365" y="44" type="line"/>
      <point x="363" y="464" type="line"/>
      <point x="541" y="278" type="line"/>
      <point x="592" y="329" type="line"/>
      <point x="329" y="598" type="line"/>
      <point x="325" y="598" type="line"/>
      <point x="64" y="329" type="line"/>
      <point x="115" y="279" type="line"/>
      <point x="291" y="466" type="line"/>
      <point x="289" y="44" type="line"/>
    </contour>
  </outline>
</glyph>
<glyph name="emptyset" format="1">
  <advance width="730"/>
  <unicode hex="2205"/>
  <outline>
    <contour>
      <point x="530" y="68"/>
      <point x="644" y="179"/>
      <point x="644" y="345" type="curve" smooth="yes"/>
      <point x="644" y="507"/>
      <point x="534" y="615"/>
      <point x="370" y="615" type="curve" smooth="yes"/>
      <point x="200" y="615"/>
      <point x="87" y="503"/>
      <point x="87" y="335" type="curve" smooth="yes"/>
      <point x="87" y="175"/>
      <point x="196" y="68"/>
      <point x="360" y="68" type="curve" smooth="yes"/>
    </contour>
    <contour>
      <point x="248" y="138"/>
      <point x="167" y="221"/>
      <point x="167" y="345" type="curve" smooth="yes"/>
      <point x="167" y="465"/>
      <point x="244" y="545"/>
      <point x="360" y="545" type="curve" smooth="yes"/>
      <point x="482" y="545"/>
      <point x="564" y="461"/>
      <point x="564" y="335" type="curve" smooth="yes"/>
      <point x="564" y="217"/>
      <point x="486" y="138"/>
      <point x="370" y="138" type="curve" smooth="yes"/>
    </contour>
    <contour>
      <point x="594" y="630" type="line"/>
      <point x="538" y="667" type="line"/>
      <point x="133" y="69" type="line"/>
      <point x="189" y="32" type="line"/>
    </contour>
  </outline>
</glyph>
<glyph name="greaterequal" format="1">
  <advance width="652"/>
  <unicode hex="2265"/>
  <outline>
    <contour>
      <point x="568" y="349" type="line"/>
      <point x="568" y="408" type="line"/>
      <point x="97" y="596" type="line"/>
      <point x="97" y="523" type="line"/>
      <point x="507" y="370" type="line"/>
      <point x="506" y="392" type="line"/>
      <point x="97" y="234" type="line"/>
      <point x="97" y="168" type="line"/>
    </contour>
    <contour>
      <point x="568" y="31" type="line"/>
      <point x="568" y="96" type="line"/>
      <point x="103" y="96" type="line"/>
      <point x="103" y="31" type="line"/>
    </contour>
  </outline>
</glyph>
<glyph name="_slash.zero.osf" format="1">
  <advance width="456"/>
  <outline>
    <contour>
      <point x="377" y="415" type="line"/>
      <point x="330" y="444" type="line"/>
      <point x="78" y="69" type="line"/>
      <point x="121" y="40" type="line"/>
    </contour>
    <contour>
      <point x="223" y="241" type="move" name="_slash"/>
    </contour>
  </outline>
</glyph>
<glyph name="brevecomb-cy.case" format="1">
  <advance width="425"/>
  <outline>
    <component base="brevecomb-cy" yOffset="197"/>
    <contour>
      <point x="215" y="892" type="move" name="top"/>
    </contour>
    <contour>
      <point x="215" y="694" type="move" name="_top"/>
    </contour>
  </outline>
</glyph>
<glyph name="four.tosf" format="1">
  <advance width="0"/>
  <outline>
    <contour>
      <point x="432" y="-110" type="line"/>
      <point x="432" y="594" type="line"/>
      <point x="358" y="594" type="line"/>
      <point x="24" y="106" type="line"/>
      <point x="24" y="64" type="line"/>
      <point x="555" y="64" type="line"/>
      <point x="555" y="132" type="line"/>
      <point x="107" y="132" type="line"/>
      <point x="102" y="114" type="line"/>
      <point x="357" y="486" type="line"/>
      <point x="356" y="471" type="line"/>
      <point x="356" y="-110" type="line"/>
    </contour>
  </outline>
</glyph>
<glyph name="two.osf" format="1">
  <advance width="539"/>
  <outline>
    <contour>
      <point x="489" y="0" type="line"/>
      <point x="489" y="70" type="line"/>
      <point x="139" y="70" type="line"/>
      <point x="146" y="48" type="line"/>
      <point x="367" y="223"/>
      <point x="460" y="325"/>
      <point x="460" y="434" type="curve" smooth="yes"/>
      <point x="460" y="538"/>
      <point x="380" y="602"/>
      <point x="252" y="602" type="curve" smooth="yes"/>
      <point x="173" y="602"/>
      <point x="94" y="577"/>
      <point x="44" y="534" type="curve"/>
      <point x="69" y="478" type="line"/>
      <point x="118" y="512"/>
      <point x="182" y="532"/>
      <point x="238" y="532" type="curve" smooth="yes"/>
      <point x="322" y="532"/>
      <point x="377" y="488"/>
      <point x="377" y="420" type="curve" smooth="yes"/>
      <point x="377" y="337"/>
      <point x="299" y="246"/>
      <point x="56" y="54" type="curve"/>
      <point x="56" y="0" type="line"/>
    </contour>
  </outline>
</glyph>
<glyph name="uni0306.case" format="1">
  <advance width="416"/>
  <outline>
    <component base="uni0306" yOffset="197"/>
    <contour>
      <point x="209" y="826" type="move" name="top"/>
    </contour>
    <contour>
      <point x="209" y="694" type="move" name="_top"/>
    </contour>
  </outline>
</glyph>
<glyph name="uni0306.loclVIET" format="1">
  <advance width="0"/>
  <outline>
    <contour>
      <point x="282" y="539"/>
      <point x="343" y="587"/>
      <point x="356" y="658" type="curve"/>
      <point x="317" y="684" type="line"/>
      <point x="310" y="635"/>
      <point x="270" y="602"/>
      <point x="217" y="602" type="curve" smooth="yes"/>
      <point x="166" y="602"/>
      <point x="127" y="635"/>
      <point x="119" y="683" type="curve"/>
      <point x="55" y="647" type="line"/>
      <point x="69" y="582"/>
      <point x="129" y="539"/>
      <point x="205" y="539" type="curve" smooth="yes"/>
    </contour>
    <contour>
      <point x="208" y="580" type="move" name="top"/>
    </contour>
    <contour>
      <point x="208" y="482" type="move" name="_top"/>
    </contour>
  </outline>
</glyph>
<glyph name="uni030C.alt" format="1">
  <advance width="233"/>
  <outline>
    <contour>
      <point x="171" y="741" type="line"/>
      <point x="97" y="749" type="line"/>
      <point x="81" y="559" type="line"/>
      <point x="129" y="553" type="line"/>
    </contour>
    <contour>
      <point x="126" y="482" type="move" name="_topright"/>
    </contour>
  </outline>
</glyph>
<glyph name="uni0331.narrow" format="1">
  <advance width="427"/>
  <outline>
    <contour>
      <point x="339" y="-171" type="line"/>
      <point x="339" y="-106" type="line"/>
      <point x="88" y="-106" type="line"/>
      <point x="88" y="-171" type="line"/>
    </contour>
    <contour>
      <point x="214" y="0" type="move" name="_bottom"/>
    </contour>
    <contour>
      <point x="214" y="-171" type="move" name="bottom"/>
    </contour>
  </outline>
</glyph>
<glyph name="zero.tosf" format="1">
  <advance width="0"/>
  <outline>
    <contour>
      <point x="432" y="-9"/>
      <point x="521" y="109"/>
      <point x="521" y="302" type="curve" smooth="yes"/>
      <point x="521" y="488"/>
      <point x="435" y="604"/>
      <point x="294" y="604" type="curve" smooth="yes"/>
      <point x="147" y="604"/>
      <point x="58" y="484"/>
      <point x="58" y="294" type="curve" smooth="yes"/>
      <point x="58" y="106"/>
      <point x="145" y="-9"/>
      <point x="287" y="-9" type="curve" smooth="yes"/>
    </contour>
    <contour>
      <point x="197" y="60"/>
      <point x="139" y="153"/>
      <point x="139" y="302" type="curve" smooth="yes"/>
      <point x="139" y="447"/>
      <point x="196" y="536"/>
      <point x="288" y="536" type="curve" smooth="yes"/>
      <point x="382" y="536"/>
      <point x="440" y="442"/>
      <point x="440" y="294" type="curve" smooth="yes"/>
      <point x="440" y="149"/>
      <point x="385" y="60"/>
      <point x="293" y="60" type="curve" smooth="yes"/>
    </contour>
    <contour>
      <point x="291" y="300" type="move" name="slash"/>
    </contour>
  </outline>
</glyph>
